<svg width="81" height="80" viewBox="0 0 81 80" fill="none" xmlns="http://www.w3.org/2000/svg">
<rect x="0.666626" width="80" height="80" rx="40" fill="#FAFBFA"/>
<path d="M60.6666 32.0001H56.6666M56.6666 32.0001H54.6666C50.6666 28.0037 44.6666 23.9997 40.6666 28.0001M56.6666 32.0001V48.0001M40.6666 28.0001L34.6657 34.0034C34.507 34.1622 34.4277 34.2416 34.3638 34.3118C32.9766 35.838 32.9772 38.1687 34.3652 39.6942C34.429 39.7644 34.5086 39.8439 34.6673 40.0025C34.826 40.1611 34.9054 40.2404 34.9756 40.3043C36.5015 41.6909 38.8314 41.6906 40.3568 40.3034C40.427 40.2396 40.5064 40.1602 40.6651 40.0016L42.6658 38.0008M40.6666 28.0001C36.6666 23.9997 30.6666 28.0038 26.6666 32.0003H24.6666M20.6666 32.0003H24.6666M24.6666 32.0003V48.0001M56.6666 48.0001V54.0001H60.6666M56.6666 48.0001H51.0098M46.6666 42.0001L49.6666 45.0001C49.8258 45.1593 49.9056 45.2391 49.9697 45.3096C51.3565 46.8353 51.3565 49.165 49.9697 50.6907C49.9056 50.7612 49.8258 50.8409 49.6666 51.0001C49.5074 51.1593 49.4276 51.2391 49.3571 51.3032C47.8315 52.69 45.5017 52.69 43.9761 51.3032C43.9056 51.2391 43.8258 51.1593 43.6666 51.0001L42.6666 50.0001C41.5761 51.0906 41.0309 51.6359 40.4427 51.9274C39.3236 52.4819 38.0097 52.4819 36.8906 51.9274C36.3024 51.6359 35.7571 51.0906 34.6666 50.0001C33.2883 51.8379 30.4579 51.5827 29.4306 49.528L28.6666 48.0001H24.6666M24.6666 48.0001V54.0001H20.6666" stroke="#F97B07" stroke-width="4" stroke-linecap="round" stroke-linejoin="round"/>
</svg>
