<svg width="80" height="80" viewBox="0 0 80 80" fill="none" xmlns="http://www.w3.org/2000/svg">
<rect width="80" height="80" rx="40" fill="#FAFBFA"/>
<path d="M24 34V30.4C24 28.1598 24 27.0397 24.436 26.184C24.8195 25.4314 25.4314 24.8195 26.184 24.436C27.0397 24 28.1598 24 30.4 24H49.6C51.8402 24 52.9603 24 53.816 24.436C54.5686 24.8195 55.1805 25.4314 55.564 26.184C56 27.0397 56 28.1598 56 30.4V49.6C56 51.8402 56 52.9603 55.564 53.816C55.1805 54.5686 54.5686 55.1805 53.816 55.564C52.9603 56 51.8402 56 49.6 56H37M38 48H50M32 38L38 34V40L50 30M50 30H44M50 30V36M30 45.0001C29 44.752 27.3702 44.7429 26 44.752C25.5418 44.7551 25.8188 44.7356 25.2 44.752C23.5852 44.8024 22.0033 45.4736 22 47.3751C21.9965 49.4007 24 50.0001 26 50.0001C28 50.0001 30 50.4625 30 52.6251C30 54.2502 28.385 54.9624 26.3722 55.1982C24.7722 55.1982 24 55.2501 22 55.0001M26 56V58M26 42V44" stroke="#F97B07" stroke-width="4" stroke-linecap="round" stroke-linejoin="round"/>
</svg>
