<svg width="80" height="80" viewBox="0 0 80 80" fill="none" xmlns="http://www.w3.org/2000/svg">
<rect width="80" height="80" rx="40" fill="#FAFBFA"/>
<path d="M38.218 45.092C38 45.5198 38 46.0799 38 47.2V50.8C38 51.9201 38 52.4802 38.218 52.908C38.4097 53.2843 38.7157 53.5903 39.092 53.782C39.5198 54 40.0799 54 41.2 54H44.8C45.9201 54 46.4802 54 46.908 53.782C47.2843 53.5903 47.5903 53.2843 47.782 52.908C48 52.4802 48 51.9201 48 50.8V47.2C48 46.0799 48 45.5198 47.782 45.092C47.5903 44.7157 47.2843 44.4097 46.908 44.218C46.4802 44 45.9201 44 44.8 44H41.2C40.0799 44 39.5198 44 39.092 44.218C38.7157 44.4097 38.4097 44.7157 38.218 45.092ZM38.218 45.092L31.4772 35.3483M32 31H48M25.2 36H28.8C29.9201 36 30.4802 36 30.908 35.782C31.2843 35.5903 31.5903 35.2843 31.782 34.908C32 34.4802 32 33.9201 32 32.8V29.2C32 28.0799 32 27.5198 31.782 27.092C31.5903 26.7157 31.2843 26.4097 30.908 26.218C30.4802 26 29.9201 26 28.8 26H25.2C24.0799 26 23.5198 26 23.092 26.218C22.7157 26.4097 22.4097 26.7157 22.218 27.092C22 27.5198 22 28.0799 22 29.2V32.8C22 33.9201 22 34.4802 22.218 34.908C22.4097 35.2843 22.7157 35.5903 23.092 35.782C23.5198 36 24.0799 36 25.2 36ZM51.2 36H54.8C55.9201 36 56.4802 36 56.908 35.782C57.2843 35.5903 57.5903 35.2843 57.782 34.908C58 34.4802 58 33.9201 58 32.8V29.2C58 28.0799 58 27.5198 57.782 27.092C57.5903 26.7157 57.2843 26.4097 56.908 26.218C56.4802 26 55.9201 26 54.8 26H51.2C50.0799 26 49.5198 26 49.092 26.218C48.7157 26.4097 48.4097 26.7157 48.218 27.092C48 27.5198 48 28.0799 48 29.2V32.8C48 33.9201 48 34.4802 48.218 34.908C48.4097 35.2843 48.7157 35.5903 49.092 35.782C49.5198 36 50.0799 36 51.2 36Z" stroke="#F97B07" stroke-width="4" stroke-linecap="round" stroke-linejoin="round"/>
</svg>
