<svg width="81" height="80" viewBox="0 0 81 80" fill="none" xmlns="http://www.w3.org/2000/svg">
<rect x="0.5" width="80" height="80" rx="40" fill="#FAFBFA"/>
<path d="M44.5 37C44.5 39.7614 40.0228 42 34.5 42C28.9772 42 24.5 39.7614 24.5 37M44.5 37C44.5 34.2386 40.0228 32 34.5 32C28.9772 32 24.5 34.2386 24.5 37M44.5 37V45M24.5 37V45M56.5 27C56.5 24.2386 52.0228 22 46.5 22C42.5418 22 39.1207 23.1499 37.5 24.8179M56.5 27C56.5 28.8507 54.489 30.4666 51.5 31.3311M56.5 27V44C56.5 45.4806 54.489 46.7733 51.5 47.4649M56.5 36C56.5 37.5134 54.3989 38.8304 51.2999 39.51M44.5 45C44.5 47.7614 40.0228 50 34.5 50C28.9772 50 24.5 47.7614 24.5 45M44.5 45V53C44.5 55.7614 40.0228 58 34.5 58C28.9772 58 24.5 55.7614 24.5 53V45" stroke="#F97B07" stroke-width="4" stroke-linecap="round" stroke-linejoin="round"/>
</svg>
