<svg width="242" height="63" viewBox="0 0 242 63" fill="none" xmlns="http://www.w3.org/2000/svg">
<path d="M15.5238 41.8757C22.343 31.3152 20.2945 17.3228 15.4911 6.37311C19.1263 20.9276 20.9466 40.6219 5.91699 49.3773C9.8118 47.9068 13.1631 45.2899 15.5238 41.8757Z" fill="#026FC1"/>
<path d="M25.6795 14.9825C31.211 23.2569 35.3406 34.2985 29.8036 43.5835C41.1763 28.6507 26.2174 9.76713 14.084 0.390198C18.3569 4.91955 22.236 9.80116 25.6795 14.9825Z" fill="#026FC1"/>
<path d="M41.9478 45.0969C27.6137 46.1778 13.084 48.8801 0.108398 55.2088C13.1492 50.8852 26.7769 48.4153 40.4372 47.0263C36.3728 53.1875 30.374 57.8679 24.4459 62.1591C31.9444 58.0624 39.6928 52.8632 43.5073 44.9672L41.9478 45.0969Z" fill="#026FC1"/>
<path d="M48.9463 39.0546H50.6036C50.6036 41.011 51.8316 41.9893 53.5106 41.9893C55.1896 41.9893 56.4393 41.011 56.4393 39.0546V27.5915H58.0694V39.1411C58.0694 42.1028 55.9666 43.5674 53.4834 43.5674C51.0002 43.5674 48.9463 42.0055 48.9463 39.0546Z" fill="#026FC1"/>
<path d="M62.9054 35.5199C62.9043 33.9214 63.38 32.3585 64.2722 31.0289C65.1643 29.6994 66.433 28.6629 67.9176 28.0507C69.4021 27.4385 71.0359 27.278 72.6122 27.5896C74.1885 27.9012 75.6364 28.6709 76.7728 29.8012C77.9092 30.9315 78.683 32.3717 78.9963 33.9395C79.3095 35.5073 79.1482 37.1324 78.5327 38.609C77.9172 40.0856 76.8752 41.3474 75.5384 42.2349C74.2017 43.1223 72.6304 43.5954 71.0233 43.5943C69.9524 43.6118 68.8889 43.415 67.896 43.0154C66.9031 42.6158 66.0011 42.0217 65.2438 41.2684C64.4864 40.5151 63.8891 39.618 63.4874 38.6305C63.0857 37.6429 62.8877 36.5851 62.9054 35.5199ZM77.4242 35.5199C77.4491 34.6686 77.3021 33.8209 76.9918 33.0271C76.6815 32.2333 76.2142 31.5095 75.6176 30.8986C75.021 30.2877 74.3072 29.802 73.5185 29.4703C72.7299 29.1387 71.8823 28.9678 71.026 28.9678C70.1698 28.9678 69.3222 29.1387 68.5335 29.4703C67.7448 29.802 67.0311 30.2877 66.4345 30.8986C65.8379 31.5095 65.3706 32.2333 65.0603 33.0271C64.75 33.8209 64.6029 34.6686 64.6279 35.5199C64.6029 36.3712 64.75 37.2188 65.0603 38.0126C65.3706 38.8064 65.8379 39.5302 66.4345 40.1411C67.0311 40.7521 67.7448 41.2378 68.5335 41.5694C69.3222 41.9011 70.1698 42.0719 71.026 42.0719C71.8823 42.0719 72.7299 41.9011 73.5185 41.5694C74.3072 41.2378 75.021 40.7521 75.6176 40.1411C76.2142 39.5302 76.6815 38.8064 76.9918 38.0126C77.3021 37.2188 77.4491 36.3712 77.4242 35.5199Z" fill="#026FC1"/>
<path d="M84.113 27.5915H85.7431V43.3891H84.113V27.5915Z" fill="#026FC1"/>
<path d="M93.5298 31.3098V43.389H91.8726V27.4131L103.419 39.6707V27.5914H105.049V43.5674L93.5298 31.3098Z" fill="#026FC1"/>
<path d="M113.906 29.1966H109.325V27.5752H120.193V29.1966H115.563V43.389H113.933L113.906 29.1966Z" fill="#026FC1"/>
<path d="M128.653 39.0546H130.283C130.283 41.011 131.517 41.9893 133.19 41.9893C134.864 41.9893 136.124 41.011 136.124 39.0546V27.5915H137.755V39.1411C137.755 42.1028 135.652 43.5674 133.168 43.5674C130.685 43.5674 128.653 42.0055 128.653 39.0546Z" fill="#026FC1"/>
<path d="M142.612 35.52C142.607 33.9219 143.078 32.3581 143.967 31.0267C144.856 29.6953 146.122 28.6562 147.605 28.0409C149.088 27.4257 150.721 27.2619 152.297 27.5704C153.874 27.8789 155.323 28.6458 156.461 29.7739C157.599 30.9021 158.375 32.3407 158.69 33.9077C159.006 35.4748 158.846 37.0996 158.233 38.5766C157.619 40.0536 156.579 41.3163 155.243 42.2047C153.908 43.0931 152.337 43.5674 150.73 43.5674C149.662 43.5848 148.6 43.3888 147.609 42.9909C146.618 42.593 145.718 42.0013 144.961 41.2509C144.204 40.5005 143.606 39.6066 143.202 38.6222C142.799 37.6378 142.598 36.5829 142.612 35.52ZM157.142 35.52C157.142 33.8329 156.468 32.2149 155.269 31.0219C154.069 29.829 152.443 29.1588 150.746 29.1588C149.05 29.1588 147.424 29.829 146.224 31.0219C145.025 32.2149 144.351 33.8329 144.351 35.52C144.351 37.2071 145.025 38.8251 146.224 40.018C147.424 41.211 149.05 41.8812 150.746 41.8812C152.443 41.8812 154.069 41.211 155.269 40.018C156.468 38.8251 157.142 37.2071 157.142 35.52Z" fill="#026FC1"/>
<path d="M163.614 37.4278V27.5915H165.244V37.4927C165.244 40.476 167.08 41.9893 169.808 41.9893C172.536 41.9893 174.372 40.476 174.372 37.4927V27.5915H176.002V37.4278C176.002 41.2975 173.497 43.5674 169.786 43.5674C166.075 43.5674 163.614 41.2975 163.614 37.4278Z" fill="#026FC1"/>
<path d="M181.958 27.5915H186.544C189.701 27.5915 191.553 29.3318 191.553 31.9151C191.553 33.85 190.467 35.7416 187.598 36.1685L193.298 43.3728H191.287L185.696 36.2712H183.615V43.3891H181.958V27.5915ZM186.484 34.8012C188.717 34.8012 189.858 33.7203 189.858 31.9746C189.858 30.2289 188.717 29.1048 186.484 29.1048H183.62V34.8012H186.484Z" fill="#026FC1"/>
<path d="M198.981 31.3098V43.389H197.351V27.4131L208.871 39.6761V27.5914H210.501V43.5674L198.981 31.3098Z" fill="#026FC1"/>
<path d="M216.63 27.5915H225.693V29.175H218.287V34.4931H224.351V36.1145H218.287V41.8109H225.693V43.3891H216.63V27.5915Z" fill="#026FC1"/>
<path d="M234.528 36.6928L228.714 27.5915H230.638L235.354 35.093L240.076 27.5915H242L236.186 36.6928V43.3891H234.528V36.6928Z" fill="#026FC1"/>
</svg>
