<svg width="81" height="80" viewBox="0 0 81 80" fill="none" xmlns="http://www.w3.org/2000/svg">
<rect x="0.333252" width="80" height="80" rx="40" fill="#FAFBFA"/>
<path d="M27.9799 32.0007C28.8098 32.7337 29.3333 33.8057 29.3333 35C29.3333 37.2091 27.5424 39 25.3333 39C24.139 39 23.0669 38.4766 22.334 37.6467M27.9799 32.0007C28.2161 32 28.4668 32 28.7333 32H51.9333C52.1997 32 52.4504 32 52.6866 32.0007M27.9799 32.0007C26.2303 32.0062 25.2712 32.0519 24.5173 32.436C23.7646 32.8195 23.1527 33.4314 22.7692 34.184C22.3851 34.9379 22.3394 35.897 22.334 37.6467M22.334 37.6467C22.3333 37.8829 22.3333 38.1335 22.3333 38.4V49.6C22.3333 49.8665 22.3333 50.1171 22.334 50.3533M22.334 50.3533C23.0669 49.5234 24.139 49 25.3333 49C27.5424 49 29.3333 50.7909 29.3333 53C29.3333 54.1943 28.8098 55.2663 27.9799 55.9993M22.334 50.3533C22.3394 52.103 22.3851 53.0621 22.7692 53.816C23.1527 54.5686 23.7646 55.1805 24.5173 55.564C25.2712 55.9481 26.2303 55.9938 27.9799 55.9993M27.9799 55.9993C28.2161 56 28.4668 56 28.7333 56H51.9333C52.1997 56 52.4504 56 52.6866 55.9993M58.3333 50.3542C57.6003 49.5238 56.5279 49 55.3333 49C53.1241 49 51.3333 50.7909 51.3333 53C51.3333 54.1943 51.8567 55.2663 52.6866 55.9993M58.3333 50.3542C58.334 50.1177 58.3333 49.8668 58.3333 49.6V38.4C58.3333 38.1335 58.3333 37.8829 58.3325 37.6467M58.3333 50.3542C58.3278 52.1033 58.2813 53.0622 57.8973 53.816C57.5138 54.5686 56.9019 55.1805 56.1492 55.564C55.3954 55.9481 54.4362 55.9938 52.6866 55.9993M58.3325 37.6467C57.5996 38.4766 56.5275 39 55.3333 39C53.1241 39 51.3333 37.2091 51.3333 35C51.3333 33.8057 51.8567 32.7337 52.6866 32.0007M58.3325 37.6467C58.3271 35.897 58.2814 34.9379 57.8973 34.184C57.5138 33.4314 56.9019 32.8195 56.1492 32.436C55.3954 32.0519 54.4362 32.0062 52.6866 32.0007M32.3333 32V30.4C32.3333 28.1598 32.3333 27.0397 32.7692 26.184C33.1527 25.4314 33.7646 24.8195 34.5173 24.436C35.3729 24 36.493 24 38.7333 24H41.9333C44.1735 24 45.2936 24 46.1492 24.436C46.9019 24.8195 47.5138 25.4314 47.8973 26.184C48.3333 27.0397 48.3333 28.1598 48.3333 30.4V32M44.3333 44C44.3333 46.2091 42.5424 48 40.3333 48C38.1241 48 36.3333 46.2091 36.3333 44C36.3333 41.7909 38.1241 40 40.3333 40C42.5424 40 44.3333 41.7909 44.3333 44Z" stroke="#F97B07" stroke-width="4" stroke-linecap="round" stroke-linejoin="round"/>
</svg>
