<svg width="81" height="80" viewBox="0 0 81 80" fill="none" xmlns="http://www.w3.org/2000/svg">
<rect x="0.666504" width="80" height="80" rx="40" fill="#FAFBFA"/>
<path d="M32.6665 26.0001C30.6898 26.0016 29.6537 26.0268 28.8505 26.436C28.0979 26.8195 27.486 27.4314 27.1025 28.184C26.6665 29.0397 26.6665 30.1598 26.6665 32.4V51.6C26.6665 53.8402 26.6665 54.9603 27.1025 55.816C27.486 56.5686 28.0979 57.1805 28.8505 57.564C29.7062 58 30.8263 58 33.0665 58H48.2665C50.5067 58 51.6268 58 52.4825 57.564C53.2351 57.1805 53.847 56.5686 54.2305 55.816C54.6665 54.9603 54.6665 53.8402 54.6665 51.6V32.4C54.6665 30.1598 54.6665 29.0397 54.2305 28.184C53.847 27.4314 53.2351 26.8195 52.4825 26.436C51.6793 26.0268 50.6432 26.0016 48.6665 26.0001M32.6665 26.0001V30H48.6665V26.0001M32.6665 26.0001V25.4142C32.6665 24.5087 33.0262 23.6403 33.6665 23C34.3068 22.3597 35.1752 22 36.0807 22H45.2523C46.1578 22 47.0262 22.3597 47.6665 23C48.3068 23.6403 48.6665 24.5087 48.6665 25.4142V26.0001M40.6665 46H34.6665M46.6665 38H34.6665" stroke="#F97B07" stroke-width="4" stroke-linecap="round" stroke-linejoin="round"/>
</svg>
