<svg width="583" height="539" viewBox="0 0 583 539" fill="none" xmlns="http://www.w3.org/2000/svg">
<rect width="582.3" height="539" fill="white"/>
<path d="M231.3 289.4C226.005 291.439 220.554 293.044 215 294.2C208 295.6 200.9 296.6 193.8 295.9C188.8 295.4 183.8 294.8 179.2 292C174.6 289.2 172.4 284 172.8 278.2C173.373 270.267 176.413 263.156 179.475 255.994C179.617 255.663 179.758 255.332 179.9 255C183.993 245.359 189.087 236.176 195.1 227.6C200.525 219.743 206.472 212.26 212.9 205.2C222.434 194.444 232.983 184.632 244.4 175.9C253.99 168.765 264.612 163.133 275.9 159.2C281.311 157.364 286.819 155.828 292.4 154.6C294.389 154.136 296.422 153.936 298.441 153.737L298.443 153.736C299.468 153.635 300.49 153.535 301.5 153.4C305.108 152.868 308.763 152.734 312.4 153C316.843 153.29 321.256 153.925 325.6 154.9C331.279 156.481 336.75 158.731 341.9 161.6C348.2 165.1 351.5 170.2 351.3 177.4C351.1 184.6 349.2 188.9 344.5 193C343.7 193.8 343.1 194 342.2 193C337.5 187.9 331.4 186 324.7 185.1C319.445 184.516 314.138 184.583 308.9 185.3C303.519 185.87 298.219 187.044 293.1 188.8C284.236 191.691 275.744 195.618 267.8 200.5C262.179 203.831 256.769 207.504 251.6 211.5C243.623 217.424 236.194 224.05 229.4 231.3C223.2 238 217.4 245 214 253.7C212.076 258.071 211.62 262.948 212.7 267.6C213.045 268.454 213.603 269.206 214.321 269.783C215.038 270.361 215.892 270.745 216.8 270.9C224.4 271.9 231.5 269.9 238.5 267.3C238.823 267.165 239.139 267.009 239.455 266.852C240.314 266.427 246.675 263.761 246.675 263.761C247.394 263.487 248.112 263.213 248.8 262.9C254.4 260.3 260 257.6 265.5 254.8C273.9 250.4 282.2 245.8 290.4 241.1C294.102 239.001 297.776 236.858 301.448 234.716C307.396 231.245 313.341 227.777 319.4 224.5C326.831 220.417 334.513 216.81 342.4 213.7C346.1 212.3 349.8 211.3 353.8 211.9C357.702 212.485 360.843 213.832 364.244 215.29L364.5 215.4C366.651 216.322 367.745 216.942 368.755 217.515C369.389 217.874 369.991 218.215 370.8 218.6C371.052 218.687 371.282 218.826 371.476 219.008C371.671 219.19 371.825 219.41 371.929 219.655C372.032 219.9 372.083 220.165 372.078 220.431C372.074 220.697 372.013 220.959 371.9 221.2L367.4 235.5L367.399 235.503L367.399 235.505C366.199 239.703 365 243.902 363.9 248.2L360.9 258.7L358.2 270C357.85 271.5 357.475 273.024 357.1 274.549C356.725 276.074 356.35 277.6 356 279.1C355.831 280.715 355.564 282.318 355.2 283.9C354.9 285 355.9 284.6 356.3 284.4L370.1 278.5C380.2 274.2 390.3 269.9 400.5 265.9C406.444 263.569 411.539 261.476 416.537 259.422L416.541 259.421C420.118 257.951 423.646 256.502 427.4 255L440.6 249.8C441.612 249.058 442.761 248.68 443.924 248.297C444.484 248.113 445.047 247.928 445.6 247.7C444.195 248.855 442.629 249.797 440.951 250.497C440.946 250.501 440.94 250.505 440.935 250.509C440.93 250.513 440.924 250.517 440.918 250.521C440.853 250.564 440.778 250.591 440.7 250.6L403.1 271.6L374.3 287.6C366.3 292 358.2 296.3 349.8 299.9C347.348 300.889 344.801 301.626 342.2 302.1C338 302.9 336 299.6 336.7 295.9C337.058 294.011 337.259 292.747 337.436 291.63C337.606 290.559 337.755 289.623 338 288.4C338.228 287.259 338.519 285.723 338.834 284.057L338.837 284.04L338.837 284.038C339.212 282.058 339.621 279.897 340 278C340.27 276.652 340.524 275.275 340.781 273.885L340.782 273.882C341.192 271.663 341.608 269.413 342.1 267.2C342.9 263.6 343.5 260.5 344.1 257.2C344.278 256.222 344.482 255.173 344.695 254.083L344.695 254.078C345.199 251.492 345.748 248.672 346.1 246C346.239 244.941 346.379 244.068 346.501 243.304C346.817 241.326 347.016 240.075 346.8 238.2C346.3 232.4 343.7 232 339 233.4C334.154 234.785 329.9 237.353 325.645 239.921C324.369 240.691 323.092 241.462 321.8 242.2C315.361 245.833 308.982 249.526 302.614 253.213L302.61 253.214L302.603 253.219L302.601 253.22L302.586 253.228C297.393 256.235 292.207 259.238 287 262.2C275.4 268.8 266.6 273.3 256.2 278.6C251.733 280.933 247.133 283.033 242.4 284.9C241.464 285.535 240.41 285.977 239.3 286.2C237.941 287.013 236.453 287.588 234.9 287.9C233.967 288.5 233.211 288.745 232.456 288.989C232.078 289.111 231.7 289.233 231.3 289.4Z" fill="#F97700"/>
<path d="M362.214 374.6L364.154 374.68H438.117C441.229 374.68 443.007 373.16 443.088 370.44C443.169 367.72 441.39 365.76 438.561 365.72C432.539 365.68 426.558 365.84 420.576 365.68C415.281 365.56 411.28 363.08 408.936 358.4C406.592 353.72 407.036 349.32 409.906 345.16C412.775 341 415.888 339.56 420.293 339.52H489.608L490.295 339.64V348.04H472.794V383.16H464.064V348.24C463.296 348.2 462.771 348.08 462.286 348.08H421.061C418.757 348.08 417.019 349.28 416.373 351.2C416.057 352.126 416.064 353.13 416.394 354.051C416.724 354.973 417.357 355.758 418.191 356.28C419.106 356.787 420.134 357.062 421.182 357.08C426.921 357.16 432.66 357.08 438.359 357.12C444.058 357.16 447.615 359.4 450.12 363.88C452.626 368.36 452.505 372.96 449.676 377.28C447.332 381 443.775 383.24 439.329 383.24C411.159 383.32 382.988 383.28 354.858 383.28H353.686V339.68H397.498V348.12H362.214V374.6Z" fill="#0A275E"/>
<path d="M245.087 339.52C247.835 339.52 250.422 339.44 253.049 339.56C253.615 339.6 254.302 340.24 254.746 340.76C263.099 350.386 271.438 360.04 279.764 369.72C279.998 369.868 280.241 370.001 280.492 370.12V339.6H289.06V383.28C286.352 383.28 283.725 383.36 281.138 383.24C280.573 383.24 279.966 382.68 279.562 382.2L255.797 354.8L253.574 352.36V383.16H245.087V339.52Z" fill="#0A275E"/>
<path d="M137.578 383.12V339.64H146.187V374.64H181.673V383.12H137.578Z" fill="#0A275E"/>
<path d="M299.285 339.52C302.317 339.52 304.944 339.56 307.571 339.48C308.743 339.44 309.187 339.92 309.672 340.88C313.108 348.12 316.624 355.36 320.14 362.6L321.353 364.92C322.808 361.88 324.142 359.2 325.435 356.48C327.941 351.32 330.447 346.2 332.912 341.04C333.397 339.92 334.003 339.4 335.297 339.48C337.843 339.6 340.389 339.52 343.34 339.52L321.312 385.32L299.285 339.52Z" fill="#0A275E"/>
<path d="M127.393 383.28C124.241 383.28 121.452 383.4 118.623 383.24C118.057 383.2 117.289 382.32 116.966 381.68C113.288 374.2 109.691 366.72 106.053 359.24C105.892 358.88 105.649 358.6 105.326 358L101.365 366.04C98.8187 371.32 96.2724 376.6 93.7666 381.88C93.2816 382.96 92.6754 383.36 91.5033 383.32C88.8762 383.24 86.2895 383.28 83.3391 383.28C90.7354 367.96 97.9699 352.92 105.366 337.52L127.393 383.28Z" fill="#0A275E"/>
<path d="M191.898 339.6H200.305V383.2H191.898V339.6Z" fill="#0A275E"/>
<path d="M234.659 383.2H226.455V339.64H234.659V383.2Z" fill="#0A275E"/>
<path d="M373.652 357.2H397.498V365.6H373.652V357.2Z" fill="#0A275E"/>
<path d="M200.305 334.36H191.898V325.96H200.305V334.36Z" fill="#0A275E"/>
<path d="M226.414 334.36V326H234.619V334.36H226.414Z" fill="#0A275E"/>
</svg>
