<svg width="40" height="32" viewBox="0 0 40 32" fill="none" xmlns="http://www.w3.org/2000/svg">
<path d="M38.4186 0V2.27907C35.1938 3.45736 32.6667 5.31783 30.8372 7.86047C29.0078 10.3721 28.093 12.9922 28.093 15.7209C28.093 16.3101 28.186 16.7442 28.3721 17.0233C28.4961 17.2093 28.6357 17.3023 28.7907 17.3023C28.9457 17.3023 29.1783 17.1938 29.4884 16.9767C30.4806 16.2636 31.7364 15.907 33.2558 15.907C35.0233 15.907 36.5891 16.6357 37.9535 18.093C39.3178 19.5194 40 21.2248 40 23.2093C40 25.2868 39.2093 27.1163 37.6279 28.6977C36.0775 30.2791 34.186 31.0698 31.9535 31.0698C29.3488 31.0698 27.1008 30 25.2093 27.8605C23.3178 25.7209 22.3721 22.8527 22.3721 19.2558C22.3721 15.0698 23.6589 11.3178 26.2326 8C28.8062 4.68217 32.8682 2.0155 38.4186 0ZM16.0465 0V2.27907C12.8217 3.45736 10.2946 5.31783 8.46512 7.86047C6.63566 10.3721 5.72093 12.9922 5.72093 15.7209C5.72093 16.3101 5.81395 16.7442 6 17.0233C6.12403 17.2093 6.26357 17.3023 6.4186 17.3023C6.57364 17.3023 6.8062 17.1938 7.11628 16.9767C8.10853 16.2636 9.36434 15.907 10.8837 15.907C12.6512 15.907 14.2171 16.6357 15.5814 18.093C16.9457 19.5194 17.6279 21.2248 17.6279 23.2093C17.6279 25.2868 16.8372 27.1163 15.2558 28.6977C13.7054 30.2791 11.814 31.0698 9.5814 31.0698C6.97674 31.0698 4.72868 30 2.83721 27.8605C0.945736 25.7209 0 22.8527 0 19.2558C0 15.0698 1.28682 11.3178 3.86047 8C6.43411 4.68217 10.4961 2.0155 16.0465 0Z" fill="#1D1E25"/>
</svg>
