<svg width="81" height="80" viewBox="0 0 81 80" fill="none" xmlns="http://www.w3.org/2000/svg">
<rect x="0.333252" width="80" height="80" rx="40" fill="#FAFBFA"/>
<path d="M22.3333 22H26.3333M58.3333 22H54.3333M40.3333 52L30.3333 58M40.3333 52L50.3333 58M40.3333 52V58M40.3333 52V46M54.3333 22V39.6C54.3333 41.8402 54.3333 42.9603 53.8973 43.816C53.5138 44.5686 52.9019 45.1805 52.1492 45.564C51.2936 46 50.1735 46 47.9333 46H40.3333M54.3333 22H26.3333M26.3333 22V39.6C26.3333 41.8402 26.3333 42.9603 26.7692 43.816C27.1527 44.5686 27.7646 45.1805 28.5173 45.564C29.3729 46 30.493 46 32.7333 46H40.3333M32.3333 36L38.3333 30L42.3333 36L48.3333 30" stroke="#F97B07" stroke-width="4" stroke-linecap="round" stroke-linejoin="round"/>
</svg>
