<svg width="210" height="33" viewBox="0 0 210 33" fill="none" xmlns="http://www.w3.org/2000/svg">
<path d="M12.2455 29.3839C11.1394 29.8207 10.0006 30.1646 8.84026 30.4123C7.3779 30.7123 5.89464 30.9266 4.41139 30.7766C3.36685 30.6695 2.32231 30.5409 1.36133 29.941C0.400346 29.3411 -0.0592556 28.2269 0.0243098 26.9842C0.14411 25.2846 0.779204 23.761 1.41881 22.2266C1.4484 22.1556 1.47801 22.0845 1.50756 22.0135C2.36261 19.9479 3.42692 17.9803 4.68298 16.1429C5.81637 14.4595 7.05869 12.8561 8.40155 11.3435C10.3933 9.03898 12.5971 6.93668 14.9822 5.06579C16.9857 3.53703 19.2047 2.33047 21.5628 1.48771C22.6932 1.09427 23.844 0.765241 25.0098 0.502128C25.4254 0.402679 25.8501 0.359753 26.2719 0.317128L26.2722 0.317099C26.4864 0.29545 26.6998 0.273879 26.9109 0.245017C27.6645 0.13103 28.4282 0.10229 29.188 0.159316C30.1161 0.221344 31.0381 0.357452 31.9456 0.566402C33.132 0.905242 34.275 1.38711 35.3508 2.00192C36.6669 2.75182 37.3563 3.84453 37.3145 5.38718C37.2727 6.92983 36.8758 7.85113 35.8939 8.72958C35.7268 8.90099 35.6015 8.94384 35.4134 8.72958C34.4316 7.63687 33.1572 7.22979 31.7575 7.03695C30.6598 6.91179 29.5511 6.92618 28.4568 7.07981C27.3326 7.20195 26.2254 7.45349 25.156 7.82971C23.3042 8.44914 21.5301 9.29056 19.8706 10.3365C18.6964 11.0501 17.5662 11.8372 16.4863 12.6933C14.8199 13.9625 13.2678 15.3823 11.8485 16.9356C10.5533 18.3711 9.34164 19.8709 8.63135 21.735C8.22944 22.6715 8.13416 23.7164 8.35977 24.7131C8.43188 24.8961 8.54844 25.0572 8.69836 25.1809C8.84828 25.3047 9.02657 25.387 9.21629 25.4202C10.804 25.6344 12.2873 25.2059 13.7496 24.6488C13.8171 24.62 13.8831 24.5865 13.9492 24.5529C14.1286 24.4618 15.4574 23.8906 15.4574 23.8906C15.6077 23.8318 15.7577 23.7731 15.9014 23.7061C17.0713 23.1491 18.2412 22.5706 19.3902 21.9707C21.145 21.0279 22.879 20.0423 24.592 19.0353C25.3655 18.5855 26.1328 18.1264 26.8999 17.6674C28.1426 16.9239 29.3845 16.1808 30.6504 15.4787C32.2027 14.6039 33.8075 13.831 35.4553 13.1647C36.2282 12.8647 37.0012 12.6505 37.8368 12.779C38.652 12.9045 39.3082 13.193 40.0187 13.5054L40.0721 13.5289C40.5215 13.7265 40.75 13.8592 40.9611 13.982C41.0936 14.059 41.2192 14.132 41.3883 14.2146C41.4408 14.2332 41.489 14.263 41.5296 14.3019C41.5702 14.3409 41.6024 14.3881 41.624 14.4406C41.6457 14.4932 41.6564 14.5498 41.6553 14.6068C41.6543 14.6638 41.6416 14.72 41.6181 14.7716L40.678 17.8355L40.6778 17.8361L40.6777 17.8366C40.4271 18.7361 40.1765 19.6356 39.9468 20.5566L39.3201 22.8063L38.756 25.2273C38.6829 25.5487 38.6046 25.8753 38.5263 26.202C38.4479 26.5288 38.3696 26.8556 38.2964 27.1771C38.2611 27.5231 38.2053 27.8665 38.1293 28.2055C38.0666 28.4412 38.2755 28.3555 38.3591 28.3126L41.242 27.0485C43.352 26.1272 45.462 25.2059 47.5929 24.3489C48.8345 23.8495 49.899 23.401 50.943 22.961L50.944 22.9606C51.6913 22.6457 52.4283 22.3352 53.2125 22.0135L55.9701 20.8994C56.1816 20.7403 56.4216 20.6593 56.6645 20.5773C56.7815 20.5379 56.8992 20.4982 57.0146 20.4494C56.7211 20.6969 56.3939 20.8988 56.0434 21.0488C56.0423 21.0496 56.0412 21.0505 56.0401 21.0513C56.039 21.0522 56.0378 21.053 56.0366 21.0538C56.0229 21.063 56.0073 21.0689 55.991 21.0708L48.136 25.5702L42.1194 28.9983C40.4482 29.941 38.756 30.8623 37.0012 31.6336C36.4889 31.8455 35.9569 32.0035 35.4135 32.105C34.5361 32.2764 34.1182 31.5693 34.2645 30.7766C34.3392 30.3718 34.3811 30.1011 34.4183 29.8617C34.4538 29.6323 34.4849 29.4318 34.5361 29.1697C34.5837 28.9253 34.6444 28.5961 34.7103 28.2392L34.7109 28.2355L34.711 28.2352C34.7892 27.8109 34.8746 27.3478 34.9539 26.9414C35.0102 26.6527 35.0634 26.3576 35.1171 26.0598L35.1172 26.059C35.2029 25.5837 35.2899 25.1015 35.3926 24.6274C35.5597 23.8561 35.6851 23.1919 35.8104 22.4849C35.8475 22.2753 35.8902 22.0506 35.9346 21.8171L35.9348 21.816C36.04 21.2619 36.1548 20.6577 36.2282 20.0852C36.2573 19.8582 36.2865 19.6712 36.312 19.5075C36.3779 19.0838 36.4197 18.8158 36.3745 18.414C36.27 17.1713 35.7268 17.0856 34.745 17.3856C33.7326 17.6822 32.8438 18.2324 31.955 18.7827C31.6884 18.9477 31.4217 19.1128 31.1517 19.271C29.8065 20.0493 28.4739 20.8406 27.1435 21.6305L27.1428 21.6309L27.1413 21.6318L27.141 21.632L27.1378 21.6339C26.0529 22.2781 24.9694 22.9214 23.8817 23.5562C21.4584 24.9702 19.62 25.9344 17.4473 27.07C16.5142 27.5699 15.5532 28.0198 14.5644 28.4198C14.3687 28.5559 14.1486 28.6506 13.9168 28.6983C13.6328 28.8725 13.3219 28.9957 12.9976 29.0625C12.8026 29.1911 12.6447 29.2435 12.4869 29.2958C12.408 29.322 12.3291 29.3482 12.2455 29.3839Z" fill="#F97700"/>
<path d="M164.743 21.3864L165.423 21.4133H191.346C192.437 21.4133 193.06 20.9012 193.088 19.9849C193.117 19.0686 192.493 18.4083 191.502 18.3948C189.391 18.3813 187.295 18.4352 185.198 18.3813C183.342 18.3409 181.94 17.5054 181.118 15.9288C180.297 14.3522 180.453 12.8698 181.458 11.4684C182.464 10.0669 183.555 9.58183 185.099 9.56836H209.393L209.634 9.60878V12.4386H203.5V24.2701H200.44V12.506C200.171 12.4925 199.987 12.4521 199.817 12.4521H185.368C184.561 12.4521 183.951 12.8564 183.725 13.5032C183.614 13.8151 183.617 14.1534 183.732 14.4638C183.848 14.7742 184.07 15.0386 184.362 15.2146C184.683 15.3854 185.043 15.478 185.411 15.4841C187.422 15.511 189.434 15.4841 191.431 15.4976C193.428 15.511 194.675 16.2657 195.553 17.7749C196.431 19.2842 196.389 20.8339 195.397 22.2892C194.576 23.5424 193.329 24.2971 191.771 24.2971C181.897 24.324 172.024 24.3105 162.165 24.3105H161.754V9.62226H177.109V12.4656H164.743V21.3864Z" fill="#0A275E"/>
<path d="M123.691 9.56837C124.655 9.56837 125.561 9.54142 126.482 9.58184C126.68 9.59532 126.921 9.81093 127.077 9.98611C130.005 13.2292 132.927 16.4813 135.846 19.7424C135.928 19.7922 136.013 19.8372 136.1 19.8771V9.59532H139.104V24.3105C138.155 24.3105 137.234 24.3375 136.327 24.2971C136.129 24.2971 135.916 24.1084 135.775 23.9467L127.445 14.716L126.666 13.894V24.2701H123.691V9.56837Z" fill="#0A275E"/>
<path d="M86.0107 24.2562V9.6084H89.028V21.3994H101.465V24.2562H86.0107Z" fill="#0A275E"/>
<path d="M142.688 9.56793C143.75 9.56793 144.671 9.5814 145.591 9.55445C146.002 9.54098 146.158 9.70268 146.328 10.0261C147.532 12.4652 148.765 14.9042 149.997 17.3433L150.422 18.1249C150.932 17.1007 151.399 16.1979 151.853 15.2815C152.731 13.5432 153.609 11.8183 154.473 10.08C154.643 9.70268 154.856 9.5275 155.309 9.55445C156.202 9.59488 157.094 9.56793 158.128 9.56793L150.408 24.9974L142.688 9.56793Z" fill="#0A275E"/>
<path d="M82.4405 24.3105C81.3356 24.3105 80.3582 24.3509 79.3666 24.297C79.1683 24.2835 78.8991 23.9871 78.7858 23.7715C77.4967 21.2515 76.236 18.7316 74.9611 16.2117C74.9044 16.0904 74.8194 15.9961 74.7061 15.794L73.3179 18.5025C72.4254 20.2813 71.533 22.0601 70.6547 23.8388C70.4847 24.2027 70.2723 24.3374 69.8615 24.324C68.9407 24.297 68.0341 24.3105 67 24.3105C69.5923 19.1494 72.128 14.0826 74.7203 8.89453L82.4405 24.3105Z" fill="#0A275E"/>
<path d="M105.049 9.59521H107.995V24.2835H105.049V9.59521Z" fill="#0A275E"/>
<path d="M120.037 24.2832H117.161V9.6084H120.037V24.2832Z" fill="#0A275E"/>
<path d="M168.752 15.5244H177.11V18.3543H168.752V15.5244Z" fill="#0A275E"/>
<path d="M107.995 7.82985H105.049V5H107.995V7.82985Z" fill="#0A275E"/>
<path d="M117.146 7.83005V5.01367H120.022V7.83005H117.146Z" fill="#0A275E"/>
</svg>
