<svg width="80" height="80" viewBox="0 0 80 80" fill="none" xmlns="http://www.w3.org/2000/svg">
<rect width="80" height="80" rx="40" fill="#FAFBFA"/>
<path d="M42 56V52C42 46.4772 37.5228 42 32 42C26.4772 42 22 46.4772 22 52V56H42ZM42 56H58V54C58 48.109 53.5228 44 48 44C45.1733 44 42.6206 45.251 40.8019 47.2622M38 30C38 33.3137 35.3137 36 32 36C28.6863 36 26 33.3137 26 30C26 26.6863 28.6863 24 32 24C35.3137 24 38 26.6863 38 30ZM52 34C52 36.2091 50.2091 38 48 38C45.7909 38 44 36.2091 44 34C44 31.7909 45.7909 30 48 30C50.2091 30 52 31.7909 52 34Z" stroke="#F97B07" stroke-width="4" stroke-linecap="round" stroke-linejoin="round"/>
</svg>
