<svg width="80" height="80" viewBox="0 0 80 80" fill="none" xmlns="http://www.w3.org/2000/svg">
<rect width="80" height="80" rx="40" fill="#FAFBFA"/>
<path d="M38 24C38 22.8954 37.1046 22 36 22C34.8954 22 34 22.8954 34 24H38ZM34 56C34 57.1046 34.8954 58 36 58C37.1046 58 38 57.1046 38 56H34ZM46 24C46 22.8954 45.1046 22 44 22C42.8954 22 42 22.8954 42 24H46ZM42 56C42 57.1046 42.8954 58 44 58C45.1046 58 46 57.1046 46 56H42ZM28.4471 39.7956L28.9647 37.8637L28.4471 39.7956ZM24.2044 35.5529L26.1363 35.0353L24.2044 35.5529ZM55.7956 35.5529L53.8637 35.0353L55.7956 35.5529ZM51.5529 39.7956L51.0353 37.8637L51.5529 39.7956ZM51.5529 24.2044L51.0353 26.1363L51.5529 24.2044ZM55.7956 28.4471L53.8637 28.9647L55.7956 28.4471ZM28.4471 24.2044L28.9647 26.1363L28.4471 24.2044ZM24.2044 28.4471L26.1363 28.9647L24.2044 28.4471ZM24.2044 43.5529L22.2726 44.0706L24.2044 43.5529ZM28.4471 47.7956L27.9294 49.7274H27.9294L28.4471 47.7956ZM55.7956 43.5529L57.7274 44.0706V44.0706L55.7956 43.5529ZM51.5529 47.7956L51.0353 45.8637L51.5529 47.7956ZM28.4471 55.7956L27.9294 57.7274H27.9294L28.4471 55.7956ZM24.2044 51.5529L26.1363 51.0353L26.1363 51.0353L24.2044 51.5529ZM51.5529 55.7956L52.0706 57.7274H52.0706L51.5529 55.7956ZM55.7956 51.5529L57.7274 52.0706V52.0706L55.7956 51.5529ZM30 30C28.8954 30 28 30.8954 28 32C28 33.1046 28.8954 34 30 34V30ZM30.02 34C31.1246 34 32.02 33.1046 32.02 32C32.02 30.8954 31.1246 30 30.02 30V34ZM50 30C48.8954 30 48 30.8954 48 32C48 33.1046 48.8954 34 50 34V30ZM50.02 34C51.1246 34 52.02 33.1046 52.02 32C52.02 30.8954 51.1246 30 50.02 30V34ZM34 24V56H38V24H34ZM42 24V56H46V24H42ZM32 26H48V22H32V26ZM48 38H32V42H48V38ZM32 38C30.0113 38 29.4093 37.9828 28.9647 37.8637L27.9294 41.7274C29.0109 42.0172 30.2688 42 32 42V38ZM22 32C22 33.7312 21.9828 34.9891 22.2726 36.0706L26.1363 35.0353C26.0172 34.5907 26 33.9887 26 32H22ZM28.9647 37.8637C27.5844 37.4938 26.5062 36.4156 26.1363 35.0353L22.2726 36.0706C23.0123 38.8313 25.1687 40.9877 27.9294 41.7274L28.9647 37.8637ZM54 32C54 33.9887 53.9828 34.5907 53.8637 35.0353L57.7274 36.0706C58.0172 34.9891 58 33.7312 58 32H54ZM48 42C49.7312 42 50.9891 42.0172 52.0706 41.7274L51.0353 37.8637C50.5907 37.9828 49.9887 38 48 38V42ZM53.8637 35.0353C53.4938 36.4156 52.4156 37.4938 51.0353 37.8637L52.0706 41.7274C54.8313 40.9877 56.9877 38.8313 57.7274 36.0706L53.8637 35.0353ZM48 26C49.9887 26 50.5907 26.0172 51.0353 26.1363L52.0706 22.2726C50.9891 21.9828 49.7312 22 48 22V26ZM58 32C58 30.2688 58.0172 29.0109 57.7274 27.9294L53.8637 28.9647C53.9828 29.4093 54 30.0113 54 32H58ZM51.0353 26.1363C52.4156 26.5062 53.4938 27.5844 53.8637 28.9647L57.7274 27.9294C56.9877 25.1687 54.8313 23.0123 52.0706 22.2726L51.0353 26.1363ZM32 22C30.2688 22 29.0109 21.9828 27.9294 22.2726L28.9647 26.1363C29.4093 26.0172 30.0113 26 32 26V22ZM26 32C26 30.0113 26.0172 29.4093 26.1363 28.9647L22.2726 27.9294C21.9828 29.0109 22 30.2688 22 32H26ZM27.9294 22.2726C25.1687 23.0123 23.0123 25.1687 22.2726 27.9294L26.1363 28.9647C26.5062 27.5844 27.5844 26.5062 28.9647 26.1363L27.9294 22.2726ZM36 46H32V50H36V46ZM48 46H44V50H48V46ZM22 40C22 41.7312 21.9828 42.9891 22.2726 44.0706L26.1363 43.0353C26.0172 42.5907 26 41.9887 26 40H22ZM32 46C30.0113 46 29.4093 45.9828 28.9647 45.8637L27.9294 49.7274C29.0109 50.0172 30.2688 50 32 50V46ZM22.2726 44.0706C23.0123 46.8313 25.1687 48.9877 27.9294 49.7274L28.9647 45.8637C27.5844 45.4938 26.5062 44.4156 26.1363 43.0353L22.2726 44.0706ZM54 40C54 41.9887 53.9828 42.5907 53.8637 43.0353L57.7274 44.0706C58.0172 42.9891 58 41.7312 58 40H54ZM48 50C49.7312 50 50.9891 50.0172 52.0706 49.7274L51.0353 45.8637C50.5907 45.9828 49.9887 46 48 46V50ZM53.8637 43.0353C53.4938 44.4156 52.4156 45.4938 51.0353 45.8637L52.0706 49.7274C54.8313 48.9877 56.9877 46.8313 57.7274 44.0706L53.8637 43.0353ZM48 54H32V58H48V54ZM58 48V32H54V48H58ZM26 48V32H22V48H26ZM32 54C30.0113 54 29.4093 53.9828 28.9647 53.8637L27.9294 57.7274C29.0109 58.0172 30.2688 58 32 58V54ZM22 48C22 49.7312 21.9828 50.9891 22.2726 52.0706L26.1363 51.0353C26.0172 50.5907 26 49.9887 26 48H22ZM28.9647 53.8637C27.5844 53.4938 26.5062 52.4156 26.1363 51.0353L22.2726 52.0706C23.0123 54.8313 25.1687 56.9877 27.9294 57.7274L28.9647 53.8637ZM48 58C49.7312 58 50.9891 58.0172 52.0706 57.7274L51.0353 53.8637C50.5907 53.9828 49.9887 54 48 54V58ZM54 48C54 49.9887 53.9828 50.5907 53.8637 51.0353L57.7274 52.0706C58.0172 50.9891 58 49.7312 58 48H54ZM52.0706 57.7274C54.8313 56.9877 56.9877 54.8313 57.7274 52.0706L53.8637 51.0353C53.4938 52.4156 52.4156 53.4938 51.0353 53.8637L52.0706 57.7274ZM30 34H30.02V30H30V34ZM50 34H50.02V30H50V34Z" fill="#F97B07"/>
</svg>
